<svg xmlns="http://www.w3.org/2000/svg" width="172.56" height="35" viewBox="0 0 172.56 35"><rect class="svg__rect" x="0" y="0" width="172.56" height="35" fill="#31C4F3"/><rect class="svg__rect" x="172.56" y="0" width="0" height="35" fill="#389AD5"/><path class="svg__text" d="M15.70 22L14.22 22L14.22 13.47L19.64 13.47L19.64 14.66L15.70 14.66L15.70 17.20L19.13 17.20L19.13 18.38L15.70 18.38L15.70 22ZM25.28 22L23.80 22L23.80 13.47L26.80 13.47Q28.27 13.47 29.08 14.13Q29.88 14.79 29.88 16.05L29.88 16.05Q29.88 16.90 29.47 17.48Q29.05 18.06 28.31 18.37L28.31 18.37L30.23 21.92L30.23 22L28.64 22L26.93 18.71L25.28 18.71L25.28 22ZM25.28 14.66L25.28 17.52L26.80 17.52Q27.55 17.52 27.98 17.15Q28.40 16.77 28.40 16.11L28.40 16.11Q28.40 15.43 28.01 15.05Q27.62 14.68 26.84 14.66L26.84 14.66L25.28 14.66ZM34.00 18.00L34.00 18.00L34.00 17.52Q34.00 16.28 34.45 15.32Q34.89 14.37 35.69 13.86Q36.50 13.35 37.54 13.35Q38.59 13.35 39.39 13.85Q40.20 14.35 40.64 15.29Q41.08 16.23 41.08 17.48L41.08 17.48L41.08 17.96Q41.08 19.21 40.65 20.16Q40.22 21.10 39.41 21.61Q38.60 22.12 37.56 22.12L37.56 22.12Q36.52 22.12 35.71 21.61Q34.89 21.10 34.45 20.17Q34.01 19.23 34.00 18.00ZM35.49 17.46L35.49 17.96Q35.49 19.36 36.03 20.13Q36.58 20.90 37.56 20.90L37.56 20.90Q38.54 20.90 39.07 20.15Q39.60 19.40 39.60 17.96L39.60 17.96L39.60 17.51Q39.60 16.09 39.06 15.34Q38.53 14.58 37.54 14.58L37.54 14.58Q36.58 14.58 36.04 15.33Q35.50 16.09 35.49 17.46L35.49 17.46ZM47.03 22L45.55 22L45.55 13.47L47.03 13.47L50.84 19.54L50.84 13.47L52.31 13.47L52.31 22L50.83 22L47.03 15.95L47.03 22ZM58.74 14.66L56.10 14.66L56.10 13.47L62.87 13.47L62.87 14.66L60.21 14.66L60.21 22L58.74 22L58.74 14.66ZM72.20 22L66.62 22L66.62 13.47L72.16 13.47L72.16 14.66L68.11 14.66L68.11 17.02L71.61 17.02L71.61 18.19L68.11 18.19L68.11 20.82L72.20 20.82L72.20 22ZM77.88 22L76.40 22L76.40 13.47L77.88 13.47L81.69 19.54L81.69 13.47L83.16 13.47L83.16 22L81.68 22L77.88 15.95L77.88 22ZM90.36 22L87.90 22L87.90 13.47L90.42 13.47Q91.56 13.47 92.43 13.97Q93.31 14.48 93.79 15.40Q94.27 16.33 94.27 17.52L94.27 17.52L94.27 17.95Q94.27 19.16 93.78 20.08Q93.30 21.00 92.41 21.50Q91.51 22 90.36 22L90.36 22ZM89.39 14.66L89.39 20.82L90.35 20.82Q91.52 20.82 92.14 20.09Q92.77 19.36 92.78 17.99L92.78 17.99L92.78 17.52Q92.78 16.13 92.18 15.40Q91.57 14.66 90.42 14.66L90.42 14.66L89.39 14.66ZM100.21 22L98.73 22L98.73 13.47L100.65 13.47L103.12 20.01L105.57 13.47L107.49 13.47L107.49 22L106.01 22L106.01 19.19L106.16 15.43L103.64 22L102.58 22L100.06 15.43L100.21 19.19L100.21 22ZM117.81 22L112.23 22L112.23 13.47L117.76 13.47L117.76 14.66L113.71 14.66L113.71 17.02L117.21 17.02L117.21 18.19L113.71 18.19L113.71 20.82L117.81 20.82L117.81 22ZM123.48 22L122.00 22L122.00 13.47L123.48 13.47L127.30 19.54L127.30 13.47L128.77 13.47L128.77 22L127.29 22L123.48 15.95L123.48 22ZM135.19 14.66L132.55 14.66L132.55 13.47L139.32 13.47L139.32 14.66L136.66 14.66L136.66 22L135.19 22L135.19 14.66ZM142.81 18.00L142.81 18.00L142.81 17.52Q142.81 16.28 143.25 15.32Q143.69 14.37 144.50 13.86Q145.30 13.35 146.35 13.35Q147.39 13.35 148.19 13.85Q149.00 14.35 149.44 15.29Q149.88 16.23 149.89 17.48L149.89 17.48L149.89 17.96Q149.89 19.21 149.45 20.16Q149.02 21.10 148.21 21.61Q147.41 22.12 146.36 22.12L146.36 22.12Q145.32 22.12 144.51 21.61Q143.70 21.10 143.26 20.17Q142.81 19.23 142.81 18.00ZM144.29 17.46L144.29 17.96Q144.29 19.36 144.84 20.13Q145.39 20.90 146.36 20.90L146.36 20.90Q147.34 20.90 147.87 20.15Q148.40 19.40 148.40 17.96L148.40 17.96L148.40 17.51Q148.40 16.09 147.87 15.34Q147.33 14.58 146.35 14.58L146.35 14.58Q145.39 14.58 144.84 15.33Q144.30 16.09 144.29 17.46L144.29 17.46ZM155.83 22L154.35 22L154.35 13.47L157.35 13.47Q158.83 13.47 159.63 14.13Q160.43 14.79 160.43 16.05L160.43 16.05Q160.43 16.90 160.02 17.48Q159.61 18.06 158.87 18.37L158.87 18.37L160.78 21.92L160.78 22L159.20 22L157.48 18.71L155.83 18.71L155.83 22ZM155.83 14.66L155.83 17.52L157.36 17.52Q158.11 17.52 158.53 17.15Q158.95 16.77 158.95 16.11L158.95 16.11Q158.95 15.43 158.56 15.05Q158.17 14.68 157.40 14.66L157.40 14.66L155.83 14.66Z" fill="#FFFFFF"/><path class="svg__text" d="" fill="#FFFFFF" x="185.56"/></svg>